<?xml version="1.0" encoding="utf-8"?>
<svg style="shape-rendering: geometricPrecision; text-rendering: geometricPrecision; fill-rule: evenodd; clip-rule: evenodd;" width="300px" height="500px" viewBox="120 32 260 436" xmlns="http://www.w3.org/2000/svg">
  <g id="Layer_x0020_1">
    <path d="M 120 32 L 380 32 L 380 468 L 120 468 Z" style="fill: rgb(122, 211, 200); fill-rule: nonzero;"/>
    <path d="M250 155c55,0 100,44 100,99 0,55 -45,100 -100,100 -55,0 -100,-45 -100,-100 0,-55 45,-99 100,-99l0 0z" style="fill: white; fill-rule: nonzero;"/>
    <path d="M249 244c7,0 13,6 13,13 0,6 -6,12 -13,12 -7,0 -12,-6 -12,-12 0,-7 5,-13 12,-13zm56 -24c-8,-4 -25,1 -33,4l-12 -7c15,-6 40,-16 54,-4 22,18 -19,51 -34,61 -20,13 -75,45 -93,29 -20,-17 13,-47 24,-58l1 14c-6,5 -23,23 -20,31 12,30 143,-57 113,-70zm-58 -31c-18,6 -18,74 -16,90 -4,1 -7,2 -10,4 -3,-24 -6,-100 26,-105 15,-2 21,14 25,25l-10 4c-2,-6 -7,-20 -15,-18zm33 94c-2,15 -9,45 -26,49 -15,4 -23,-13 -28,-25l10 -3c3,6 8,19 15,18 11,-2 13,-23 17,-32l12 -7zm19 -15l8 -8c24,29 13,46 -24,42l3 -11c5,1 18,3 22,-3 3,-6 -5,-16 -9,-20zm-84 -48c-5,-1 -23,-4 -23,5 0,7 5,13 9,18l-8 7c-6,-7 -12,-15 -12,-25 0,-20 23,-18 37,-16l-3 11zm25 8l2 -11c17,7 32,15 47,26l-9 7c-12,-9 -26,-16 -40,-22z" style="fill: rgb(138, 218, 208);"/>
  </g>
</svg>