<?xml version="1.0" encoding="utf-8"?>
<svg style="shape-rendering: geometricPrecision; text-rendering: geometricPrecision; fill-rule: evenodd; clip-rule: evenodd;" width="300px" height="500px" viewBox="120 32 260 436" xmlns="http://www.w3.org/2000/svg">
  <g id="Layer_x0020_1">
    <path d="M 120 32 L 380 32 L 380 468 L 120 468 Z" style="fill: rgb(122, 211, 200); fill-rule: nonzero;"/>
    <path d="M250 155c55,0 100,44 100,99 0,55 -45,100 -100,100 -55,0 -100,-45 -100,-100 0,-55 45,-99 100,-99l0 0z" style="fill: white; fill-rule: nonzero;"/>
    <path d="M176 204l35 0 32 49 -32 48 -35 0 32 -48 -32 -49zm15 8l15 0 27 41 -27 40 -15 0 27 -40 -27 -41z" style="fill: rgb(138, 218, 208);"/>
    <path d="M225 204l34 0 32 49 -32 48 -34 0 32 -48 -32 -49zm15 8l15 0 27 41 -27 40 -15 0 27 -40 -27 -41z" style="fill: rgb(138, 218, 208);"/>
    <path d="M271 204l34 0 32 49 -32 48 -34 0 32 -48 -32 -49zm15 8l15 0 27 41 -27 40 -15 0 26 -40 -26 -41z" style="fill: rgb(138, 218, 208);"/>
  </g>
</svg>