<?xml version="1.0" encoding="utf-8"?>
<svg style="shape-rendering: geometricPrecision; text-rendering: geometricPrecision; fill-rule: evenodd; clip-rule: evenodd;" width="300px" height="500px" viewBox="120 32 260 436" xmlns="http://www.w3.org/2000/svg">
  <g id="Layer_x0020_1">
    <path d="M 120 32 L 380 32 L 380 468 L 120 468 Z" style="fill: rgb(122, 211, 200); fill-rule: nonzero;"/>
    <path d="M250 155c55,0 100,44 100,99 0,55 -45,100 -100,100 -55,0 -100,-45 -100,-100 0,-55 45,-99 100,-99l0 0z" style="fill: white; fill-rule: nonzero;"/>
    <path d="M281 273c-1,1 -9,10 -9,10 0,3 21,18 -1,38 -12,12 -35,6 -49,3l0 -13c13,6 43,12 43,-9 0,-8 -11,-14 -16,-18 -9,-5 -25,-13 -31,-21 -16,-22 11,-38 11,-39 0,-1 -22,-20 -1,-37 13,-11 33,-8 48,-3l0 13c-11,-3 -25,-9 -35,-2 -8,5 -7,14 -1,19 17,15 64,29 41,59zm-40 -42c-3,-2 -3,0 -6,2 -13,10 -8,22 4,30 3,2 20,13 23,13 0,0 3,-2 3,-2 22,-19 -9,-35 -24,-43z" style="fill: rgb(138, 218, 208);"/>
  </g>
</svg>