<?xml version="1.0" encoding="utf-8"?>
<svg style="shape-rendering: geometricPrecision; text-rendering: geometricPrecision; fill-rule: evenodd; clip-rule: evenodd;" width="300px" height="500px" viewBox="120 32 260 435" xmlns="http://www.w3.org/2000/svg">
  <g id="Layer_x0020_1">
    <path d="M 120 32 L 380 32 L 380 468 L 120 468 Z" style="fill: rgb(122, 211, 200); fill-rule: nonzero;"/>
    <path d="M250 155c55,0 100,44 100,99 0,55 -45,100 -100,100 -55,0 -100,-45 -100,-100 0,-55 45,-99 100,-99l0 0z" style="fill: white; fill-rule: nonzero;"/>
    <path d="M225 229l0 -35c0,-7 5,-12 11,-12l28 0c6,0 11,5 11,12l0 35 36 0c6,0 11,5 11,12l0 27c0,6 -5,11 -11,11l-36 0 0 36c0,3 -1,6 -3,8 -3,2 -5,4 -8,4l-28 -1c-6,0 -11,-5 -11,-11l0 -36 -36 0c-6,0 -11,-5 -11,-11l0 -27c0,-7 5,-12 11,-12l36 0zm11 12l0 -47 28 0 0 47 47 0 0 27 -47 0 0 47 -28 0 0 -47 -47 0 0 -27 47 0z" style="fill: rgb(138, 218, 208);"/>
  </g>
</svg>