<?xml version="1.0" encoding="utf-8"?>
<svg style="shape-rendering: geometricPrecision; text-rendering: geometricPrecision; fill-rule: evenodd; clip-rule: evenodd;" width="300px" height="500px" viewBox="120 33 260 435" xmlns="http://www.w3.org/2000/svg">
  <g id="Layer_x0020_1">
    <path d="M 120 32 L 380 32 L 380 468 L 120 468 Z" style="fill: rgb(122, 211, 200); fill-rule: nonzero;"/>
    <path d="M250 155c55,0 100,44 100,99 0,55 -45,100 -100,100 -55,0 -100,-45 -100,-100 0,-55 45,-99 100,-99l0 0z" style="fill: white; fill-rule: nonzero;"/>
    <path d="M284 219l-73 0c-12,0 -26,5 -26,20l0 19c0,1 0,4 0,6 -1,3 -5,4 -7,2 -2,-1 -2,-2 -2,-4l0 -23c0,-18 16,-30 33,-30l74 0c0,0 1,0 1,0 -3,-3 -11,-10 -11,-13 0,-2 1,-3 2,-4 1,-2 4,-2 6,0 3,2 19,18 19,22 0,1 0,2 -1,3l-16 18c-2,1 -3,2 -5,2 -4,0 -7,-5 -3,-8l9 -10zm-68 73l77 0c9,0 16,-5 20,-12 3,-8 2,-20 2,-28 0,-2 0,-4 0,-5 2,-5 9,-4 9,2l0 22c0,13 -8,24 -19,29 -7,3 -16,2 -24,2l-65 0 10 10c1,1 1,4 0,5 0,1 -1,2 -1,2 -3,2 -6,1 -7,-1 -5,-5 -10,-10 -15,-15 -1,-2 -3,-4 -3,-6 -1,-2 1,-4 3,-6 5,-5 9,-10 14,-15 3,-2 6,-4 9,-1 1,2 1,5 -1,7 -3,3 -6,7 -9,10z" style="fill: rgb(138, 218, 208);"/>
  </g>
</svg>