<?xml version="1.0" encoding="utf-8"?>
<svg style="shape-rendering: geometricPrecision; text-rendering: geometricPrecision; fill-rule: evenodd; clip-rule: evenodd;" width="300px" height="500px" viewBox="119 31 261 438" xmlns="http://www.w3.org/2000/svg">
  <g id="Layer_x0020_1">
    <path d="M 120 32 L 380 32 L 380 468 L 120 468 Z" style="fill: rgb(122, 211, 200); fill-rule: nonzero;"/>
    <path d="M250 155c55,0 100,44 100,99 0,55 -45,100 -100,100 -55,0 -100,-45 -100,-100 0,-55 45,-99 100,-99l0 0z" style="fill: white; fill-rule: nonzero;"/>
    <path d="M 250 205 L 255 221 L 271 221 L 258 230 L 263 246 L 250 236 L 238 246 L 243 230 L 230 221 L 246 221 Z" style="fill: rgb(138, 218, 208); fill-rule: nonzero;"/>
    <g id="_2221103195904">
      <g>
        <path d="M309 213c3,0 3,-1 2,2 -4,11 -10,16 -17,25 -2,2 -11,18 -12,20 13,-9 25,-19 32,-33 11,-20 9,-23 -13,-23l0 8 8 1z" style="fill: rgb(138, 218, 208); fill-rule: nonzero;"/>
        <path d="M191 213c-3,0 -3,-1 -2,2 4,11 10,16 17,25 2,2 11,18 12,20 -13,-9 -25,-19 -32,-33 -11,-20 -9,-23 13,-23l0 8 -8 1z" style="fill: rgb(138, 218, 208); fill-rule: nonzero;"/>
      </g>
      <path d="M237 283c-1,-7 -7,-15 -11,-20 -9,-12 -16,-26 -19,-42 -2,-8 -3,-16 -3,-24 0,-2 0,-4 2,-6 2,-1 4,-2 6,-2l76 0c2,0 4,0 6,2 1,2 2,3 2,6 0,14 -3,28 -8,42 -3,8 -8,16 -13,23 -3,4 -12,15 -12,20 0,4 -4,8 -8,8l-10 0c-4,0 -7,-3 -8,-7zm8 -1c-1,-8 -6,-16 -12,-24 -9,-11 -15,-24 -18,-38 -2,-8 -3,-15 -3,-23l76 0c0,13 -3,27 -7,39 -3,8 -8,15 -13,21 -7,10 -13,19 -13,25l-10 0z" style="fill: rgb(138, 218, 208);"/>
      <path d="M222 312c6,-2 10,-4 13,-10 1,-4 4,-6 7,-6l13 0c3,0 6,2 7,5 3,6 7,9 13,11 4,1 7,4 7,8 -1,4 -4,7 -8,7l-51 0c-4,0 -7,-3 -7,-7 -1,-4 2,-7 6,-8zm1 7c10,-2 16,-6 19,-15l13 0c3,9 10,13 19,15l-51 0z" style="fill: rgb(138, 218, 208);"/>
    </g>
  </g>
</svg>