<?xml version="1.0" encoding="utf-8"?>
<svg style="shape-rendering: geometricPrecision; text-rendering: geometricPrecision; fill-rule: evenodd; clip-rule: evenodd;" width="300px" height="500px" viewBox="125 43 250 414" xmlns="http://www.w3.org/2000/svg">
  <g id="Layer_x0020_1">
    <rect x="125" y="43" width="250" height="414" style="fill: rgb(255, 206, 75);"/>
    <g id="_1952275388400">
      <path d="M 220 382 L 224 389 L 232 391 L 227 397 L 227 405 L 220 402 L 213 405 L 213 397 L 208 391 L 216 389 Z" style="fill: white;"/>
      <path d="M 250 382 L 254 389 L 262 391 L 257 397 L 257 405 L 250 402 L 243 405 L 243 397 L 238 391 L 246 389 Z" style="fill: white;"/>
      <path d="M 280 382 L 284 389 L 292 391 L 287 397 L 287 405 L 280 402 L 273 405 L 273 397 L 268 391 L 276 389 Z" style="fill: white;"/>
    </g>
    <path d="M304 296c2,0 5,1 6,2 2,2 2,4 2,6 0,3 -1,6 -4,8 -8,4 -15,7 -22,9 -8,2 -16,4 -26,4 -13,0 -26,-3 -37,-9 -11,-6 -20,-15 -26,-26 -6,-12 -9,-25 -9,-40 0,-15 3,-28 9,-40 6,-11 15,-20 26,-26 11,-6 24,-9 37,-9 10,0 18,2 26,4 7,2 14,5 22,9 3,2 4,5 4,8 0,2 0,4 -2,6 -1,1 -4,2 -6,2 -1,0 -3,0 -4,-1 -6,-3 -12,-5 -18,-7 -5,-2 -12,-2 -20,-2 -12,0 -22,2 -30,7 -9,5 -15,12 -19,20 -4,9 -6,18 -6,29 0,11 2,20 6,29 4,8 10,15 19,20 8,5 18,7 30,7 8,0 15,0 20,-2 6,-2 12,-4 18,-7 1,-1 3,-1 4,-1z" style="fill: white; fill-rule: nonzero;"/>
  </g>
</svg>