<?xml version="1.0" encoding="utf-8"?>
<svg style="shape-rendering: geometricPrecision; text-rendering: geometricPrecision; fill-rule: evenodd; clip-rule: evenodd;" width="300px" height="500px" viewBox="125 43 250 414" xmlns="http://www.w3.org/2000/svg">
  <g id="Layer_x0020_1">
    <g id="_1952972864464">
      <rect x="125" y="43" width="250" height="414" style="fill: rgb(60, 148, 149);"/>
      <path d="M 220 352 L 224 359 L 232 361 L 227 367 L 227 375 L 220 372 L 213 375 L 213 367 L 208 361 L 216 359 Z" style="fill: white;"/>
      <path d="M 250 352 L 254 359 L 262 361 L 257 367 L 257 375 L 250 372 L 243 375 L 243 367 L 238 361 L 246 359 Z" style="fill: white;"/>
      <path d="M 280 352 L 284 359 L 292 361 L 287 367 L 287 375 L 280 372 L 273 375 L 273 367 L 268 361 L 276 359 Z" style="fill: white;"/>
      <g>
        <path d="M 220 381 L 224 388 L 232 390 L 227 396 L 227 404 L 220 401 L 213 404 L 213 396 L 208 390 L 216 388 Z" style="fill: white;"/>
        <path d="M 250 381 L 254 388 L 262 390 L 257 396 L 257 404 L 250 401 L 243 404 L 243 396 L 238 390 L 246 388 Z" style="fill: white;"/>
        <path d="M 280 381 L 284 388 L 292 390 L 287 396 L 287 404 L 280 401 L 273 404 L 273 396 L 268 390 L 276 388 Z" style="fill: white;"/>
      </g>
      <path d="M216 217c0,5 2,9 5,12 3,3 7,5 12,7 5,2 12,4 20,5 11,3 20,6 27,8 7,3 12,7 17,13 5,5 7,13 7,22 0,8 -2,15 -6,21 -5,6 -11,11 -19,14 -8,4 -17,6 -28,6 -18,0 -34,-4 -49,-10 -2,-1 -3,-2 -5,-4 -1,-1 -1,-3 -1,-5 0,-2 1,-4 2,-6 2,-2 4,-3 6,-3 2,0 3,1 4,1 13,6 27,9 41,9 24,0 37,-8 37,-24 0,-4 -2,-8 -5,-11 -3,-2 -7,-5 -12,-6 -4,-2 -11,-4 -19,-6 -11,-3 -20,-6 -27,-8 -7,-3 -13,-7 -18,-12 -5,-6 -8,-13 -8,-22 0,-8 2,-15 6,-21 5,-7 11,-12 19,-16 8,-4 18,-6 29,-6 15,0 29,3 41,7 4,2 6,4 6,9 0,2 -1,4 -2,6 -2,1 -4,2 -6,2 -1,0 -2,0 -3,-1 -11,-3 -22,-5 -34,-5 -11,0 -20,2 -27,6 -6,4 -10,10 -10,18z" style="fill: white; fill-rule: nonzero;"/>
    </g>
  </g>
</svg>