<?xml version="1.0" encoding="utf-8"?>
<svg style="shape-rendering: geometricPrecision; text-rendering: geometricPrecision; fill-rule: evenodd; clip-rule: evenodd;" viewBox="312 802 1856 1904" xmlns="http://www.w3.org/2000/svg">
  <g id="Layer_x0020_1">
    <g id="_1874606564816">
      <ellipse cx="1240" cy="1754" rx="886" ry="908" style="fill: rgb(255, 255, 255); stroke: rgb(255, 255, 255); stroke-width: 79.1226;"/>
      <path d="M1191 2115c-33,11 -72,16 -115,16 -115,0 -208,-44 -208,-99 0,-27 17,-43 44,-65" style="fill: none; stroke: rgb(72, 148, 140); stroke-width: 79.1226; stroke-linecap: round; stroke-linejoin: round;"/>
      <path d="M1191 1984c-33,11 -72,16 -115,16 -115,0 -208,-43 -208,-103 0,-22 17,-44 44,-61" style="fill: none; stroke: rgb(72, 148, 140); stroke-width: 79.1226; stroke-linecap: round; stroke-linejoin: round;"/>
      <path d="M1191 1853c-33,10 -72,16 -115,16 -115,0 -208,-44 -208,-99 0,-27 17,-49 44,-65" style="fill: none; stroke: rgb(72, 148, 140); stroke-width: 79.1226; stroke-linecap: round; stroke-linejoin: round;"/>
      <path d="M1191 1721c-33,12 -72,17 -115,17 -115,0 -208,-50 -208,-104 0,-28 17,-43 44,-66" style="fill: none; stroke: rgb(72, 148, 140); stroke-width: 79.1226; stroke-linecap: round; stroke-linejoin: round;"/>
      <path d="M1240 1437c27,17 43,38 43,65 0,55 -92,99 -207,99 -120,0 -213,-44 -213,-99 0,-27 22,-48 49,-65" style="fill: none; stroke: rgb(72, 148, 140); stroke-width: 79.1226; stroke-linecap: round; stroke-linejoin: round;"/>
      <ellipse cx="1076" cy="1355" rx="207" ry="115" style="fill: none; stroke: rgb(72, 148, 140); stroke-width: 79.1226; stroke-linecap: round; stroke-linejoin: round;"/>
      <path d="M1562 2164c28,17 50,38 50,65 0,55 -93,99 -214,99 -115,0 -207,-44 -207,-99 0,-27 17,-48 44,-65" style="fill: none; stroke: rgb(72, 148, 140); stroke-width: 79.1226; stroke-linecap: round; stroke-linejoin: round;"/>
      <path d="M1562 2032c28,17 50,39 50,67 0,54 -93,98 -214,98 -115,0 -207,-44 -207,-98 0,-28 17,-50 44,-67" style="fill: none; stroke: rgb(72, 148, 140); stroke-width: 79.1226; stroke-linecap: round; stroke-linejoin: round;"/>
      <path d="M1557 1902c33,16 55,38 55,65 0,55 -93,99 -214,99 -115,0 -207,-49 -207,-99 0,-27 17,-49 44,-65" style="fill: none; stroke: rgb(72, 148, 140); stroke-width: 79.1226; stroke-linecap: round; stroke-linejoin: round;"/>
      <path d="M1562 1770c28,17 50,38 50,66 0,54 -93,99 -214,99 -115,0 -207,-50 -207,-99 0,-28 17,-49 44,-66" style="fill: none; stroke: rgb(72, 148, 140); stroke-width: 79.1226; stroke-linecap: round; stroke-linejoin: round;"/>
      <ellipse cx="1398" cy="1688" rx="207" ry="115" style="fill: none; stroke: rgb(72, 148, 140); stroke-width: 79.1226; stroke-linecap: round; stroke-linejoin: round;"/>
    </g>
  </g>
</svg>