<?xml version="1.0" encoding="utf-8"?>
<svg style="shape-rendering: geometricPrecision; text-rendering: geometricPrecision; fill-rule: evenodd; clip-rule: evenodd;" viewBox="680 1163 1188 1191" xmlns="http://www.w3.org/2000/svg">
  <g id="Layer_x0020_1">
    <g id="_1753359677712">
      <ellipse cx="1240" cy="1755" rx="886" ry="900" style="fill: rgb(255, 255, 255); stroke: rgb(255, 255, 255); stroke-width: 79.1226;"/>
      <path d="M 742 1773 L 838 1773" style="fill: none; stroke: rgb(131, 146, 143); stroke-width: 79.1226; stroke-linecap: round; stroke-linejoin: round;"/>
      <path d="M 901 1378 L 969 1445" style="fill: none; stroke: rgb(131, 146, 143); stroke-width: 79.1226; stroke-linecap: round; stroke-linejoin: round;"/>
      <path d="M 1289 1215 L 1289 1314" style="fill: none; stroke: rgb(131, 146, 143); stroke-width: 79.1226; stroke-linecap: round; stroke-linejoin: round;"/>
      <path d="M 1646 1378 L 1579 1445" style="fill: none; stroke: rgb(131, 146, 143); stroke-width: 79.1226; stroke-linecap: round; stroke-linejoin: round;"/>
      <path d="M 1804 1773 L 1706 1773" style="fill: none; stroke: rgb(131, 146, 143); stroke-width: 79.1226; stroke-linecap: round; stroke-linejoin: round;"/>
      <path d="M1547 1773c0,-163 -131,-293 -289,-293 -159,0 -289,130 -289,293 0,127 81,236 194,278l0 117 194 0 0 -117c109,-42 190,-151 190,-278z" style="fill: none; stroke: rgb(131, 146, 143); stroke-width: 79.1226; stroke-linecap: round; stroke-linejoin: round;"/>
      <path d="M 1159 2295 L 1353 2295" style="fill: none; stroke: rgb(131, 146, 143); stroke-width: 79.1226; stroke-linecap: round; stroke-linejoin: round;"/>
    </g>
  </g>
</svg>