<?xml version="1.0" encoding="utf-8"?>
<svg style="shape-rendering: geometricPrecision; text-rendering: geometricPrecision; fill-rule: evenodd; clip-rule: evenodd;" width="500px" height="500px" viewBox="95 105 310 290" xmlns="http://www.w3.org/2000/svg">
  <g id="Layer_x0020_1">
    <path d="M317 236l0 -33c0,-3 -2,-5 -4,-5l-84 0c-2,0 -4,2 -4,5l0 33 0 55c-4,-3 -9,-5 -14,-5 -13,0 -23,11 -23,24 0,12 10,23 23,23 13,0 23,-11 23,-23l0 -70 74 0 0 37c-4,-3 -9,-5 -14,-5 -13,0 -23,11 -23,24 0,12 10,23 23,23 13,0 23,-11 23,-23l0 -60z" style="fill: rgb(72, 148, 140); fill-rule: nonzero;"/>
  </g>
</svg>