<?xml version="1.0" encoding="utf-8"?>
<svg style="shape-rendering: geometricPrecision; text-rendering: geometricPrecision; fill-rule: evenodd; clip-rule: evenodd;" width="500px" height="500px" viewBox="133 133 234 235" xmlns="http://www.w3.org/2000/svg">
  <g id="Layer_x0020_1">
    <path d="M246 277c3,0 5,-2 5,-4l1 -16c21,-3 37,-14 37,-36l0 -1c0,-20 -16,-35 -40,-35 -17,0 -29,7 -39,18 -1,1 -2,3 -2,4 0,4 3,7 6,7 2,0 4,-1 5,-2 8,-9 18,-14 30,-14 16,0 26,10 26,23l0 0c0,15 -12,24 -31,25 -3,1 -6,3 -5,7l2 20c0,2 2,4 4,4l1 0zm-9 24l0 3c0,5 4,9 9,9 5,0 8,-4 8,-9l0 -3c0,-5 -3,-9 -8,-9 -5,0 -9,4 -9,9z" style="fill: rgb(131, 146, 143); fill-rule: nonzero;"/>
    <path d="M250 134c65,0 117,52 117,117 0,65 -52,117 -117,117 -65,0 -117,-52 -117,-117 0,-65 52,-117 117,-117zm0 13c57,0 104,46 104,104 0,58 -47,104 -104,104 -58,0 -104,-46 -104,-104 0,-58 46,-104 104,-104z" style="fill: rgb(131, 146, 143);"/>
  </g>
</svg>