<?xml version="1.0" encoding="utf-8"?>
<svg style="shape-rendering: geometricPrecision; text-rendering: geometricPrecision; fill-rule: evenodd; clip-rule: evenodd;" width="500px" height="500px" viewBox="115 126 270 248" xmlns="http://www.w3.org/2000/svg">
  <g id="Layer_x0020_1">
    <path d="M289 188c-2,0 -4,0 -6,1l-55 40 -40 0c-3,0 -5,3 -5,5l0 52c0,3 2,5 5,5l40 0 55 41c1,0 2,1 3,1 1,0 2,0 3,-1 1,-1 2,-2 2,-4l0 -135c0,-2 -1,-4 -2,-5l0 0z" style="fill: rgb(72, 148, 140); fill-rule: nonzero;"/>
    <path d="M343 255l-21 0c-2,0 -5,2 -5,5 0,3 3,6 5,6l21 0c3,0 5,-3 5,-6 0,-3 -2,-5 -5,-5l0 0z" style="fill: rgb(72, 148, 140); fill-rule: nonzero;"/>
    <path d="M316 231l18 -10c2,-2 3,-5 2,-7 -2,-3 -5,-4 -7,-2l-18 10c-3,2 -3,5 -2,7 1,2 3,3 4,3 1,0 2,0 3,-1z" style="fill: rgb(72, 148, 140); fill-rule: nonzero;"/>
    <path d="M334 300l-18 -10c-2,-2 -6,-1 -7,1 -1,3 -1,6 2,7l18 11c1,0 1,1 2,1 2,0 4,-1 5,-3 1,-3 0,-6 -2,-7l0 0z" style="fill: rgb(72, 148, 140); fill-rule: nonzero;"/>
  </g>
</svg>