<?xml version="1.0" encoding="utf-8"?>
<svg style="shape-rendering: geometricPrecision; text-rendering: geometricPrecision; fill-rule: evenodd; clip-rule: evenodd;" viewBox="108 133 540 540" xmlns="http://www.w3.org/2000/svg">
  <g id="Layer_x0020_46">
    <path d="M110 403c0,148 120,269 268,269l0 0c149,0 269,-121 269,-269l0 0c0,-148 -120,-269 -269,-269l0 0c-148,0 -268,121 -268,269l0 0z" style="fill: rgb(150, 223, 215); fill-rule: nonzero;"/>
    <path d="M 381 355 L 381 418" style="fill: none; fill-rule: nonzero; stroke: white; stroke-width: 12.4996; stroke-linecap: round; stroke-linejoin: round;"/>
    <path d="M 235 413 L 235 384 L 526 384 L 526 413" style="fill: none; fill-rule: nonzero; stroke: white; stroke-width: 12.4996; stroke-linecap: round; stroke-linejoin: round;"/>
    <path d="M 422 313 L 343 313 L 343 268 L 422 268 Z" style="fill: none; fill-rule: nonzero; stroke: white; stroke-width: 12.4996; stroke-linecap: round; stroke-linejoin: round;"/>
    <path d="M 393 530 L 364 530 L 364 463 L 393 463 Z" style="fill: none; fill-rule: nonzero; stroke: white; stroke-width: 12.4996; stroke-linecap: round; stroke-linejoin: round;"/>
    <path d="M 543 530 L 514 530 L 514 447 L 543 447 Z" style="fill: none; fill-rule: nonzero; stroke: white; stroke-width: 12.4996; stroke-linecap: round; stroke-linejoin: round;"/>
    <path d="M 247 530 L 218 530 L 218 488 L 247 488 Z" style="fill: none; fill-rule: nonzero; stroke: white; stroke-width: 12.4996; stroke-linecap: round; stroke-linejoin: round;"/>
  </g>
</svg>